<svg version="1.1" id="Layer_1" xmlns="http://www.w3.org/2000/svg" xmlns:xlink="http://www.w3.org/1999/xlink" x="0px" y="0px"
	 width="100%" viewBox="0 0 267 262" enable-background="new 0 0 267 262" xml:space="preserve">
<path fill="#000000" opacity="1.000000" stroke="none" 
	d="
M268.000000,92.000000 
	C268.000000,149.306473 268.000000,206.112930 268.000000,262.959717 
	C179.068954,262.959717 90.137886,262.959717 1.103409,262.959717 
	C1.103409,175.776993 1.103409,88.553833 1.103409,1.165335 
	C89.999748,1.165335 178.999847,1.165335 268.000000,1.165335 
	C268.000000,31.195250 268.000000,61.347626 268.000000,92.000000 
M257.953278,145.061600 
	C257.913605,133.704208 257.873901,122.346825 257.955536,110.060432 
	C257.970825,94.612495 258.296356,79.156296 257.885162,63.719719 
	C257.638123,54.445301 256.155243,45.225285 250.817337,36.494854 
	C241.453415,18.108486 220.673721,7.657172 200.600006,8.237426 
	C199.444611,8.158747 198.289169,8.010367 197.133850,8.011456 
	C154.438660,8.051667 111.743477,8.105718 68.187195,8.025610 
	C63.489124,8.679818 58.717567,9.008024 54.106331,10.047452 
	C38.298439,13.610740 25.726669,21.574869 18.276928,37.326580 
	C12.947938,47.952263 11.470931,59.275513 12.041335,71.923523 
	C12.084368,80.947166 12.127400,89.970810 12.034830,99.923820 
	C12.080030,109.946678 12.125230,119.969543 12.036282,130.922226 
	C12.080785,141.279068 12.125288,151.635910 12.037576,162.922745 
	C12.080499,173.947067 12.123422,184.971390 12.037205,196.863251 
	C12.747992,201.895325 13.458777,206.927399 14.082467,212.670547 
	C14.432163,213.796371 14.781860,214.922211 15.059159,216.739975 
	C15.644766,218.177063 16.230373,219.614151 16.991304,221.759613 
	C22.329224,234.455200 31.251158,243.576324 44.693256,249.213501 
	C52.811283,250.754410 60.929310,252.295303 69.970970,253.966980 
	C80.958229,253.926605 91.945496,253.886230 103.742485,253.958679 
	C104.828995,253.917023 105.915512,253.875351 107.651413,253.940582 
	C108.088303,253.913940 108.525192,253.887299 109.898956,254.009018 
	C140.240158,253.954712 170.581360,253.900391 201.459885,253.907928 
	C201.638168,253.881104 201.816452,253.854263 202.729095,253.929672 
	C204.125229,253.515884 205.521347,253.102097 207.775558,252.867889 
	C208.772018,252.914001 209.790405,253.118103 210.761749,252.983246 
	C239.590225,248.980942 258.382660,225.872345 257.936157,196.171906 
	C257.925171,195.438019 257.914215,194.704132 257.982422,193.044128 
	C257.934143,188.347427 257.885834,183.650742 257.952362,178.028778 
	C257.912506,167.349472 257.872650,156.670166 257.953278,145.061600 
z"/>
<path fill="#257BB8" opacity="1.000000" stroke="none" 
	d="
M201.098969,8.953905 
	C220.673721,7.657172 241.453415,18.108486 250.579529,37.281326 
	C249.500275,42.448467 246.114502,42.004272 242.930862,42.004028 
	C171.009171,41.998459 99.087387,41.959167 27.165981,42.101757 
	C22.896013,42.110222 20.158947,41.078178 18.886992,36.955250 
	C25.726669,21.574869 38.298439,13.610740 54.106331,10.047452 
	C58.717567,9.008024 63.489124,8.679818 68.973343,8.292774 
	C71.073662,8.708724 72.387817,8.987311 73.702011,8.987478 
	C116.167664,8.992849 158.633316,8.971370 201.098969,8.953905 
z"/>
<path fill="#2176B2" opacity="1.000000" stroke="none" 
	d="
M18.581959,37.140915 
	C20.158947,41.078178 22.896013,42.110222 27.165981,42.101757 
	C99.087387,41.959167 171.009171,41.998459 242.930862,42.004028 
	C246.114502,42.004272 249.500275,42.448467 250.541046,37.638935 
	C256.155243,45.225285 257.638123,54.445301 257.885162,63.719719 
	C258.296356,79.156296 257.970825,94.612495 257.686340,110.526993 
	C257.417114,110.993553 257.000000,110.997559 257.000000,110.553955 
	C256.997559,107.742203 256.995178,105.374062 256.995605,102.536636 
	C256.997681,95.093948 256.998901,88.120529 256.995697,81.147118 
	C256.992249,73.626450 256.990784,73.634491 249.390533,73.975166 
	C248.064697,74.034592 246.733093,74.035950 245.406387,73.993698 
	C226.391556,73.388176 207.377121,72.770576 188.055969,72.054337 
	C179.954514,66.095352 170.953232,64.267799 161.470078,64.243324 
	C141.373856,64.191452 121.277405,64.220779 101.181068,64.236458 
	C99.900772,64.237457 98.620605,64.406883 97.258972,64.503746 
	C96.670784,66.811867 96.141113,68.890366 95.161194,71.038452 
	C92.248009,71.405159 89.785820,71.953072 87.322029,71.960320 
	C64.728554,72.026833 42.134693,72.030258 19.541267,71.955498 
	C17.086432,71.947380 14.633614,71.329605 12.179859,70.994614 
	C11.470931,59.275513 12.947938,47.952263 18.581959,37.140915 
z"/>
<path fill="#095C98" opacity="1.000000" stroke="none" 
	d="
M14.169565,211.959473 
	C13.458777,206.927399 12.747992,201.895325 12.559355,196.430237 
	C28.484350,195.998047 43.887768,195.925461 59.289680,196.045731 
	C63.741135,196.080505 67.863899,195.725800 70.949448,192.405121 
	C70.663597,194.713943 70.345955,196.619690 70.003555,198.674011 
	C83.375328,198.674011 96.376694,198.674011 109.361038,198.674011 
	C109.834145,196.925079 110.247719,195.396194 110.967590,194.101212 
	C114.181686,195.223297 117.085541,196.868973 119.997910,196.884155 
	C154.459000,197.063828 188.921661,196.933670 223.382950,197.092361 
	C227.259201,197.110199 231.129608,198.399414 234.711639,199.308228 
	C232.682709,200.067841 230.969162,200.716553 229.203232,201.153549 
	C211.135406,205.624710 193.057159,210.053772 174.985535,214.509628 
	C145.776321,221.711670 116.579903,228.966278 87.344131,236.058746 
	C84.884865,236.655350 81.921997,236.906311 79.615631,236.103714 
	C69.573502,232.609070 59.712891,228.597198 49.738663,224.901917 
	C37.907841,220.518814 26.028105,216.267746 14.169565,211.959473 
z"/>
<path fill="#0E609D" opacity="1.000000" stroke="none" 
	d="
M235.002716,199.099060 
	C231.129608,198.399414 227.259201,197.110199 223.382950,197.092361 
	C188.921661,196.933670 154.459000,197.063828 119.997910,196.884155 
	C117.085541,196.868973 114.181686,195.223297 111.036514,193.699539 
	C112.794891,183.675186 114.790634,174.286392 117.100746,165.083374 
	C120.201591,168.305023 123.617729,169.092300 127.721214,169.077927 
	C165.698837,168.944901 203.677200,168.963898 241.655151,169.039673 
	C247.023193,169.050385 252.287918,169.079910 256.996246,166.463593 
	C257.276825,170.933121 257.557190,174.943588 257.837524,178.954041 
	C257.885834,183.650742 257.934143,188.347427 257.769653,193.664429 
	C257.331726,194.502823 257.133453,194.743103 256.720032,194.989166 
	C256.477997,194.972778 255.993256,194.993881 255.629883,195.005478 
	C253.853653,195.344009 252.440826,195.670944 250.809387,196.112823 
	C250.307556,196.402130 250.057877,196.615662 249.633881,196.868042 
	C249.426041,196.867691 249.012543,196.910187 248.592224,196.911133 
	C243.782166,197.641068 239.392441,198.370056 235.002716,199.099060 
z"/>
<path fill="#1B4484" opacity="1.000000" stroke="none" 
	d="
M201.994736,253.827408 
	C201.816452,253.854263 201.638168,253.881104 200.846390,253.660446 
	C198.087860,253.275986 195.943176,253.025925 193.797729,253.019165 
	C166.533295,252.933304 139.268723,252.882401 112.010910,252.618866 
	C112.017624,252.415146 112.036407,252.007904 112.358704,251.989929 
	C113.452385,251.643494 114.223778,251.315033 115.276131,250.933960 
	C116.042969,250.596100 116.528839,250.310852 117.352249,249.962204 
	C119.129570,249.275040 120.569344,248.651306 122.387070,247.996872 
	C127.515625,245.986847 132.266235,244.007523 137.329514,241.972488 
	C138.427917,241.606659 139.213623,241.296509 140.359604,240.919647 
	C158.809647,233.567581 176.899414,226.282227 195.333282,218.859573 
	C202.111542,216.464600 208.545685,214.206940 215.275620,212.161911 
	C220.570129,211.459030 225.551498,210.427582 230.574738,209.675888 
	C233.166382,209.288086 235.832458,209.397583 239.774063,209.225098 
	C238.074997,212.137451 237.417297,213.846451 236.274796,215.120804 
	C231.733017,220.186768 226.928741,225.019012 222.428680,230.120392 
	C215.527649,237.943604 208.797440,245.917480 201.994736,253.827408 
z"/>
<path fill="#1C71AD" opacity="1.000000" stroke="none" 
	d="
M12.110598,71.459068 
	C14.633614,71.329605 17.086432,71.947380 19.541267,71.955498 
	C42.134693,72.030258 64.728554,72.026833 87.322029,71.960320 
	C89.785820,71.953072 92.248009,71.405159 95.143524,71.468353 
	C95.142906,73.352737 94.605522,74.855858 94.294174,76.404434 
	C92.780968,83.930847 91.328300,91.469437 89.466171,99.035179 
	C83.496094,99.711098 77.921410,100.823120 72.330582,100.911263 
	C56.336914,101.163437 40.334843,101.132118 24.340332,100.908287 
	C20.275568,100.851402 16.226639,99.662964 12.170433,98.994453 
	C12.127400,89.970810 12.084368,80.947166 12.110598,71.459068 
z"/>
<path fill="#186CA8" opacity="1.000000" stroke="none" 
	d="
M12.102632,99.459137 
	C16.226639,99.662964 20.275568,100.851402 24.340332,100.908287 
	C40.334843,101.132118 56.336914,101.163437 72.330582,100.911263 
	C77.921410,100.823120 83.496094,99.711098 89.490723,99.429077 
	C87.808937,109.846634 85.714577,119.901772 83.161423,129.989929 
	C78.913887,130.348633 75.127365,130.920883 71.335991,130.955170 
	C58.388969,131.072205 45.438931,131.109863 32.492702,130.955063 
	C25.715742,130.874008 18.944340,130.328278 12.170429,129.992401 
	C12.125230,119.969543 12.080030,109.946678 12.102632,99.459137 
z"/>
<path fill="#1367A3" opacity="1.000000" stroke="none" 
	d="
M12.103355,130.457321 
	C18.944340,130.328278 25.715742,130.874008 32.492702,130.955063 
	C45.438931,131.109863 58.388969,131.072205 71.335991,130.955170 
	C75.127365,130.920883 78.913887,130.348633 83.149780,130.426865 
	C83.122581,132.186615 82.478569,133.508743 82.201576,134.903748 
	C80.476639,143.591110 78.833885,152.294754 76.733704,161.023529 
	C73.014351,161.369370 69.726418,161.941513 66.435799,161.957321 
	C48.347492,162.044296 30.258530,161.995163 12.169791,161.992752 
	C12.125288,151.635910 12.080785,141.279068 12.103355,130.457321 
z"/>
<path fill="#0E619D" opacity="1.000000" stroke="none" 
	d="
M12.103683,162.457748 
	C30.258530,161.995163 48.347492,162.044296 66.435799,161.957321 
	C69.726418,161.941513 73.014351,161.369370 76.742889,161.438400 
	C76.827423,162.862289 76.347015,163.877213 76.137512,164.945267 
	C74.369514,173.958694 72.651024,182.981827 70.917664,192.002045 
	C67.863899,195.725800 63.741135,196.080505 59.289680,196.045731 
	C43.887768,195.925461 28.484350,195.998047 12.623924,195.996475 
	C12.123422,184.971390 12.080499,173.947067 12.103683,162.457748 
z"/>
<path fill="#0E2E61" opacity="1.000000" stroke="none" 
	d="
M255.993256,194.993881 
	C255.993256,194.993881 256.477997,194.972778 256.768494,195.247955 
	C257.303955,195.980255 257.548920,196.437378 257.793854,196.894501 
	C258.382660,225.872345 239.590225,248.980942 210.761749,252.983246 
	C209.790405,253.118103 208.772018,252.914001 207.432953,252.457275 
	C208.072174,250.533035 208.865051,248.846588 210.066116,247.533493 
	C218.655792,238.142502 227.403656,228.895493 235.944519,219.460831 
	C240.476212,214.454910 244.694489,209.165268 249.332031,203.826752 
	C251.737640,200.764511 253.865448,197.879196 255.993256,194.993881 
z"/>
<path fill="#02457F" opacity="1.000000" stroke="none" 
	d="
M234.711639,199.308228 
	C239.392441,198.370056 243.782166,197.641068 248.345795,197.166367 
	C244.671143,199.276123 240.822571,201.131577 236.610748,203.060333 
	C229.840561,205.429230 223.433624,207.724823 216.704193,209.805511 
	C214.432587,209.600708 212.399597,209.249115 210.547668,209.678467 
	C196.462921,212.943954 182.401718,216.313629 168.355820,219.743500 
	C144.776093,225.501450 121.187668,231.228439 97.673767,237.245392 
	C94.564415,238.041031 91.870850,240.461563 88.654694,242.096130 
	C87.885307,242.011978 87.445946,241.961258 86.792130,241.624512 
	C82.681595,237.966492 78.376762,238.594269 73.741127,240.035904 
	C73.495117,240.019974 73.003220,239.986374 72.890793,239.664429 
	C70.727776,238.030762 68.828712,236.324005 66.602531,235.470093 
	C49.481293,228.902863 32.296570,222.501144 15.131556,216.048035 
	C14.781860,214.922211 14.432163,213.796371 14.126017,212.315002 
	C26.028105,216.267746 37.907841,220.518814 49.738663,224.901917 
	C59.712891,228.597198 69.573502,232.609070 79.615631,236.103714 
	C81.921997,236.906311 84.884865,236.655350 87.344131,236.058746 
	C116.579903,228.966278 145.776321,221.711670 174.985535,214.509628 
	C193.057159,210.053772 211.135406,205.624710 229.203232,201.153549 
	C230.969162,200.716553 232.682709,200.067841 234.711639,199.308228 
z"/>
<path fill="#02559C" opacity="1.000000" stroke="none" 
	d="
M44.020088,248.860718 
	C31.251158,243.576324 22.329224,234.455200 17.314480,221.400604 
	C18.942589,221.261841 20.323368,221.278976 21.540804,221.733566 
	C34.769810,226.673248 48.021942,231.560074 61.124268,236.818863 
	C62.835251,237.505585 63.740593,240.199554 64.669533,242.119156 
	C61.923149,242.868011 59.473202,243.303726 57.140926,244.088959 
	C52.731598,245.573486 48.389893,247.258835 44.020088,248.860718 
z"/>
<path fill="#02559C" opacity="1.000000" stroke="none" 
	d="
M114.995171,250.986572 
	C114.223778,251.315033 113.452385,251.643494 112.180801,252.101898 
	C111.454605,252.397064 111.253036,252.588058 110.781311,252.874802 
	C109.978500,253.250046 109.470291,253.555359 108.962082,253.860657 
	C108.525192,253.887299 108.088303,253.913940 107.207504,253.582550 
	C104.391144,251.185349 101.929070,249.239899 99.671814,247.080353 
	C97.472733,244.976486 98.104782,243.260971 100.840981,242.260223 
	C102.242149,241.747742 103.688591,241.342499 105.137199,240.978882 
	C119.313805,237.420410 133.478561,233.812195 147.685196,230.377411 
	C152.021713,229.328964 156.477112,228.772232 160.878067,227.990295 
	C161.053452,228.573029 161.228836,229.155762 161.404236,229.738480 
	C158.356735,231.186371 155.252563,232.527542 152.275452,234.108017 
	C148.133560,236.306870 144.086823,238.684998 139.999359,240.986389 
	C139.213623,241.296509 138.427917,241.606659 137.057571,241.801971 
	C131.651672,243.800613 126.830391,245.914093 122.009125,248.027557 
	C120.569344,248.651306 119.129570,249.275040 117.153061,249.820312 
	C116.075943,250.156738 115.535561,250.571655 114.995171,250.986572 
z"/>
<path fill="#025398" opacity="1.000000" stroke="none" 
	d="
M140.359619,240.919662 
	C144.086823,238.684998 148.133560,236.306870 152.275452,234.108017 
	C155.252563,232.527542 158.356735,231.186371 161.404236,229.738480 
	C161.228836,229.155762 161.053452,228.573029 160.878067,227.990295 
	C156.477112,228.772232 152.021713,229.328964 147.685196,230.377411 
	C133.478561,233.812195 119.313805,237.420410 105.137199,240.978882 
	C103.688591,241.342499 102.242149,241.747742 100.840981,242.260223 
	C98.104782,243.260971 97.472733,244.976486 99.671814,247.080353 
	C101.929070,249.239899 104.391144,251.185349 106.882805,253.529083 
	C105.915512,253.875351 104.828995,253.917023 103.219978,253.720123 
	C102.503822,253.263428 102.282127,253.078979 101.834030,252.661957 
	C98.086166,249.601318 94.536667,246.806946 91.278366,243.829590 
	C94.812073,242.076645 97.900894,239.901474 101.321495,239.032928 
	C127.709702,232.332504 154.132889,225.761765 180.622559,219.476669 
	C185.220627,218.385696 190.107559,215.802917 194.989182,218.996857 
	C176.899414,226.282227 158.809647,233.567581 140.359619,240.919662 
z"/>
<path fill="#0169AE" opacity="1.000000" stroke="none" 
	d="
M90.987183,244.012589 
	C94.536667,246.806946 98.086166,249.601318 101.362595,252.684937 
	C95.970673,252.982895 90.848915,252.886887 85.733749,253.028564 
	C80.168427,253.182709 74.609215,253.557571 69.047340,253.836212 
	C60.929310,252.295303 52.811283,250.754410 44.356670,249.037109 
	C48.389893,247.258835 52.731598,245.573486 57.140926,244.088959 
	C59.473202,243.303726 61.923149,242.868011 65.039299,242.055267 
	C68.173492,241.219498 70.588356,240.602936 73.003220,239.986374 
	C73.003220,239.986374 73.495117,240.019974 73.867401,240.363251 
	C78.877449,244.609573 83.611977,245.056076 87.006592,241.910538 
	C87.445946,241.961258 87.885307,242.011978 88.807205,242.326385 
	C89.855560,243.064240 90.421371,243.538406 90.987183,244.012589 
z"/>
<path fill="#19407D" opacity="1.000000" stroke="none" 
	d="
M217.026672,210.020432 
	C223.433624,207.724823 229.840561,205.429230 236.912689,203.257568 
	C241.403320,203.588898 245.228790,203.796310 249.054245,204.003708 
	C244.694489,209.165268 240.476212,214.454910 235.944519,219.460831 
	C227.403656,228.895493 218.655792,238.142502 210.066116,247.533493 
	C208.865051,248.846588 208.072174,250.533035 207.003906,252.367493 
	C205.521347,253.102097 204.125229,253.515884 202.361908,253.878540 
	C208.797440,245.917480 215.527649,237.943604 222.428680,230.120392 
	C226.928741,225.019012 231.733017,220.186768 236.274796,215.120804 
	C237.417297,213.846451 238.074997,212.137451 239.774063,209.225098 
	C235.832458,209.397583 233.166382,209.288086 230.574738,209.675888 
	C225.551498,210.427582 220.570129,211.459030 215.468292,211.957520 
	C215.919006,211.033798 216.472839,210.527115 217.026672,210.020432 
z"/>
<path fill="#024E8F" opacity="1.000000" stroke="none" 
	d="
M72.890793,239.664429 
	C70.588356,240.602936 68.173492,241.219498 65.388863,241.899933 
	C63.740593,240.199554 62.835251,237.505585 61.124268,236.818863 
	C48.021942,231.560074 34.769810,226.673248 21.540804,221.733566 
	C20.323368,221.278976 18.942589,221.261841 17.226818,221.046417 
	C16.230373,219.614151 15.644766,218.177063 15.095356,216.394012 
	C32.296570,222.501144 49.481293,228.902863 66.602531,235.470093 
	C68.828712,236.324005 70.727776,238.030762 72.890793,239.664429 
z"/>
<path fill="#438EC3" opacity="1.000000" stroke="none" 
	d="
M200.849487,8.595665 
	C158.633316,8.971370 116.167664,8.992849 73.702011,8.987478 
	C72.387817,8.987311 71.073662,8.708724 69.403885,8.358910 
	C111.743477,8.105718 154.438660,8.051667 197.133850,8.011456 
	C198.289169,8.010367 199.444611,8.158747 200.849487,8.595665 
z"/>
<path fill="#45679B" opacity="1.000000" stroke="none" 
	d="
M109.430519,253.934845 
	C109.470291,253.555359 109.978500,253.250046 111.012810,252.893951 
	C111.538910,252.843140 112.004196,252.822586 112.004196,252.822586 
	C139.268723,252.882401 166.533295,252.933304 193.797729,253.019165 
	C195.943176,253.025925 198.087860,253.275986 200.577728,253.629517 
	C170.581360,253.900391 140.240158,253.954712 109.430519,253.934845 
z"/>
<path fill="#2070A9" opacity="1.000000" stroke="none" 
	d="
M257.000000,110.997559 
	C257.000000,110.997559 257.417114,110.993553 257.625671,110.991493 
	C257.873901,122.346825 257.913605,133.704208 257.686035,145.527130 
	C257.418823,145.992645 257.004883,145.994644 257.004333,145.534637 
	C257.000214,141.385239 256.996674,137.695831 256.995239,133.537415 
	C256.998230,125.711449 256.999115,118.354500 257.000000,110.997559 
z"/>
<path fill="#2680BB" opacity="1.000000" stroke="none" 
	d="
M69.509155,253.901581 
	C74.609215,253.557571 80.168427,253.182709 85.733749,253.028564 
	C90.848915,252.886887 95.970673,252.982895 101.560959,252.951218 
	C102.282127,253.078979 102.503822,253.263428 102.815109,253.663712 
	C91.945496,253.886230 80.958229,253.926605 69.509155,253.901581 
z"/>
<path fill="#1A69A3" opacity="1.000000" stroke="none" 
	d="
M257.004883,145.994644 
	C257.004883,145.994644 257.418823,145.992645 257.625793,145.991760 
	C257.872650,156.670166 257.912506,167.349472 257.894958,178.491409 
	C257.557190,174.943588 257.276825,170.933121 256.997925,165.994659 
	C257.001221,158.709320 257.003052,152.351974 257.004883,145.994644 
z"/>
<path fill="#163A6F" opacity="1.000000" stroke="none" 
	d="
M257.864990,196.533203 
	C257.548920,196.437378 257.303955,195.980255 257.010559,195.264343 
	C257.133453,194.743103 257.331726,194.502823 257.730072,194.127487 
	C257.914215,194.704132 257.925171,195.438019 257.864990,196.533203 
z"/>
<path fill="#FDFEFE" opacity="1.000000" stroke="none" 
	d="
M70.949448,192.405121 
	C72.651024,182.981827 74.369514,173.958694 76.137512,164.945267 
	C76.347015,163.877213 76.827423,162.862289 77.173065,161.407867 
	C78.833885,152.294754 80.476639,143.591110 82.201576,134.903748 
	C82.478569,133.508743 83.122581,132.186615 83.608582,130.393860 
	C85.714577,119.901772 87.808937,109.846634 89.878738,99.397614 
	C91.328300,91.469437 92.780968,83.930847 94.294174,76.404434 
	C94.605522,74.855858 95.142906,73.352737 95.593765,71.398766 
	C96.141113,68.890366 96.670784,66.811867 97.258972,64.503746 
	C98.620605,64.406883 99.900772,64.237457 101.181068,64.236458 
	C121.277405,64.220779 141.373856,64.191452 161.470078,64.243324 
	C170.953232,64.267799 179.954514,66.095352 188.253723,72.351562 
	C196.382965,79.859642 199.884064,88.950150 201.314514,99.282707 
	C201.403351,100.086868 201.550507,100.615776 201.617676,101.501083 
	C201.664780,102.570312 201.791885,103.283157 201.840317,104.439133 
	C202.131546,114.890991 199.514862,124.169510 194.626160,133.151947 
	C183.205627,150.025604 167.083374,157.403656 147.534637,158.087631 
	C138.086899,158.418182 128.623611,158.303604 118.737747,158.444092 
	C118.124390,159.029419 117.940659,159.561234 117.546005,160.380768 
	C117.152184,162.078201 116.969284,163.487900 116.786377,164.897598 
	C114.790634,174.286392 112.794891,183.675186 110.730225,193.465637 
	C110.247719,195.396194 109.834145,196.925079 109.361038,198.674011 
	C96.376694,198.674011 83.375328,198.674011 70.003555,198.674011 
	C70.345955,196.619690 70.663597,194.713943 70.949448,192.405121 
M129.082382,103.591667 
	C127.595749,110.901260 126.109116,118.210854 124.353172,126.844589 
	C133.922729,126.069382 142.914001,126.060699 151.595078,124.415291 
	C158.838577,123.042381 161.974304,116.818756 161.179123,109.078865 
	C160.566299,103.114029 156.444672,99.534950 148.952011,98.996513 
	C143.985016,98.639580 138.966064,99.005188 133.999161,98.647461 
	C130.726303,98.411743 129.512482,99.848923 129.082382,103.591667 
z"/>
<path fill="#176BA7" opacity="1.000000" stroke="none" 
	d="
M194.897003,132.958740 
	C199.514862,124.169510 202.131546,114.890991 202.314270,104.438988 
	C217.793167,103.997231 232.719772,104.054222 247.645355,103.955109 
	C250.763138,103.934410 253.877090,103.337364 256.992798,103.005920 
	C256.995178,105.374062 256.997559,107.742203 257.000000,110.553955 
	C256.999115,118.354500 256.998230,125.711449 256.613403,133.613678 
	C252.157272,134.772644 248.093140,135.843506 244.011398,135.915451 
	C231.049850,136.143875 218.076187,136.207062 205.119873,135.860504 
	C201.688828,135.768723 198.303391,133.972397 194.897003,132.958740 
z"/>
<path fill="#1C70AD" opacity="1.000000" stroke="none" 
	d="
M256.995605,102.536636 
	C253.877090,103.337364 250.763138,103.934410 247.645355,103.955109 
	C232.719772,104.054222 217.793167,103.997231 202.392944,103.995850 
	C201.791885,103.283157 201.664780,102.570312 201.796188,101.334389 
	C201.827423,100.210022 201.600128,99.608734 201.372833,99.007454 
	C199.884064,88.950150 196.382965,79.859642 188.560333,72.453094 
	C207.377121,72.770576 226.391556,73.388176 245.406387,73.993698 
	C246.733093,74.035950 248.064697,74.034592 249.390533,73.975166 
	C256.990784,73.634491 256.992249,73.626450 256.995697,81.147118 
	C256.998901,88.120529 256.997681,95.093948 256.995605,102.536636 
z"/>
<path fill="#1366A2" opacity="1.000000" stroke="none" 
	d="
M194.626160,133.151947 
	C198.303391,133.972397 201.688828,135.768723 205.119873,135.860504 
	C218.076187,136.207062 231.049850,136.143875 244.011398,135.915451 
	C248.093140,135.843506 252.157272,134.772644 256.611298,134.082703 
	C256.996674,137.695831 257.000214,141.385239 257.004333,145.534637 
	C257.003052,152.351974 257.001221,158.709320 256.997742,165.535583 
	C252.287918,169.079910 247.023193,169.050385 241.655151,169.039673 
	C203.677200,168.963898 165.698837,168.944901 127.721214,169.077927 
	C123.617729,169.092300 120.201591,168.305023 117.100739,165.083374 
	C116.969284,163.487900 117.152184,162.078201 117.812378,160.123962 
	C118.582230,159.183151 118.874794,158.786880 119.167358,158.390594 
	C128.623611,158.303604 138.086899,158.418182 147.534637,158.087631 
	C167.083374,157.403656 183.205627,150.025604 194.626160,133.151947 
z"/>
<path fill="#163A6F" opacity="1.000000" stroke="none" 
	d="
M249.332031,203.826752 
	C245.228790,203.796310 241.403320,203.588898 237.275940,203.184265 
	C240.822571,201.131577 244.671143,199.276123 248.766113,197.165436 
	C249.012543,196.910187 249.426041,196.867691 249.859528,196.762726 
	C250.577103,196.481323 250.822083,196.261353 251.027985,195.997864 
	C252.440826,195.670944 253.853653,195.344009 255.629883,195.005478 
	C253.865448,197.879196 251.737640,200.764511 249.332031,203.826752 
z"/>
<path fill="#02457F" opacity="1.000000" stroke="none" 
	d="
M250.809387,196.112823 
	C250.822083,196.261353 250.577103,196.481323 250.067383,196.763077 
	C250.057877,196.615662 250.307556,196.402130 250.809387,196.112823 
z"/>
<path fill="#024C8C" opacity="1.000000" stroke="none" 
	d="
M216.704193,209.805511 
	C216.472839,210.527115 215.919006,211.033798 215.172501,211.744873 
	C208.545685,214.206940 202.111542,216.464600 195.333282,218.859558 
	C190.107559,215.802917 185.220627,218.385696 180.622559,219.476669 
	C154.132889,225.761765 127.709702,232.332504 101.321495,239.032928 
	C97.900894,239.901474 94.812073,242.076645 91.278374,243.829590 
	C90.421371,243.538406 89.855560,243.064240 89.137238,242.359818 
	C91.870850,240.461563 94.564415,238.041031 97.673767,237.245392 
	C121.187668,231.228439 144.776093,225.501450 168.355820,219.743500 
	C182.401718,216.313629 196.462921,212.943954 210.547668,209.678467 
	C212.399597,209.249115 214.432587,209.600708 216.704193,209.805511 
z"/>
<path fill="#025398" opacity="1.000000" stroke="none" 
	d="
M122.387070,247.996857 
	C126.830391,245.914093 131.651672,243.800613 136.744888,241.857666 
	C132.266235,244.007523 127.515625,245.986847 122.387070,247.996857 
z"/>
<path fill="#025398" opacity="1.000000" stroke="none" 
	d="
M115.276138,250.933960 
	C115.535561,250.571655 116.075943,250.156738 116.815521,249.883728 
	C116.528839,250.310852 116.042969,250.596100 115.276138,250.933960 
z"/>
<path fill="#025398" opacity="1.000000" stroke="none" 
	d="
M112.010910,252.618866 
	C112.004196,252.822586 111.538910,252.843140 111.307404,252.824005 
	C111.253036,252.588058 111.454605,252.397064 111.858513,252.119873 
	C112.036407,252.007904 112.017624,252.415146 112.010910,252.618866 
z"/>
<path fill="#005F9F" opacity="1.000000" stroke="none" 
	d="
M86.792130,241.624512 
	C83.611977,245.056076 78.877449,244.609573 74.113411,240.379181 
	C78.376762,238.594269 82.681595,237.966492 86.792130,241.624512 
z"/>
<path fill="#1A6DA9" opacity="1.000000" stroke="none" 
	d="
M129.155396,103.163589 
	C129.512482,99.848923 130.726303,98.411743 133.999161,98.647461 
	C138.966064,99.005188 143.985016,98.639580 148.952011,98.996513 
	C156.444672,99.534950 160.566299,103.114029 161.179123,109.078865 
	C161.974304,116.818756 158.838577,123.042381 151.595078,124.415291 
	C142.914001,126.060699 133.922729,126.069382 124.353172,126.844589 
	C126.109116,118.210854 127.595749,110.901260 129.155396,103.163589 
z"/>
<path fill="#176BA7" opacity="1.000000" stroke="none" 
	d="
M201.314514,99.282707 
	C201.600128,99.608734 201.827423,100.210022 201.876190,100.977997 
	C201.550507,100.615776 201.403351,100.086868 201.314514,99.282707 
z"/>
<path fill="#0A5F9E" opacity="1.000000" stroke="none" 
	d="
M118.737747,158.444107 
	C118.874794,158.786880 118.582230,159.183151 118.023293,159.836243 
	C117.940659,159.561234 118.124390,159.029419 118.737747,158.444107 
z"/>
</svg>