<svg version="1.1" id="Layer_1" xmlns="http://www.w3.org/2000/svg" xmlns:xlink="http://www.w3.org/1999/xlink" x="0px" y="0px"
	 width="100%" viewBox="0 0 500 500" enable-background="new 0 0 500 500" xml:space="preserve">
<path fill="#000000" opacity="1.000000" stroke="none" 
	d="
M501.000000,195.000000 
	C501.000000,297.333313 501.000000,399.166626 501.000000,500.999939 
	C334.333405,500.999969 167.666794,500.999969 1.000144,501.000000 
	C1.000096,334.333435 1.000096,167.666870 1.000048,1.000234 
	C167.666519,1.000156 334.333038,1.000156 500.999786,1.000078 
	C501.000000,65.500000 501.000000,130.000000 501.000000,195.000000 
M321.719971,416.108948 
	C354.829102,398.192413 387.930786,380.262115 421.060944,362.384521 
	C423.825439,360.892761 425.857239,359.488159 425.859039,355.704132 
	C425.891693,287.224243 426.045654,218.744293 426.269348,150.264679 
	C426.280609,146.821182 425.042267,144.822678 422.118683,143.095139 
	C364.461914,109.025719 306.838196,74.900177 249.279800,40.664948 
	C246.156601,38.807297 243.808289,38.757198 240.754669,40.579311 
	C226.019836,49.371670 211.176422,57.981922 196.379913,66.671066 
	C153.427567,91.894524 110.502441,117.164543 67.484138,142.274948 
	C64.147514,144.222580 62.765545,146.356445 62.963821,150.187775 
	C63.256207,155.837555 63.042809,161.513916 63.030666,167.178940 
	C62.898212,228.994278 62.818165,290.809906 62.522228,352.624451 
	C62.498928,357.490326 64.019264,360.257385 68.373199,362.307587 
	C74.240768,365.070465 79.824577,368.436737 85.525581,371.552460 
	C136.834854,399.594086 188.159744,427.607269 239.413284,455.750397 
	C242.737640,457.575836 245.201538,457.564758 248.554871,455.725372 
	C272.655243,442.505676 296.886536,429.524689 321.719971,416.108948 
z"/>
<path fill="#5E5050" opacity="1.000000" stroke="none" 
	d="
M321.398132,416.288452 
	C296.886536,429.524689 272.655243,442.505676 248.554871,455.725372 
	C245.201538,457.564758 242.737640,457.575836 239.413284,455.750397 
	C188.159744,427.607269 136.834854,399.594086 85.525581,371.552460 
	C79.824577,368.436737 74.240768,365.070465 68.373199,362.307587 
	C64.019264,360.257385 62.498928,357.490326 62.522228,352.624451 
	C62.818165,290.809906 62.898212,228.994278 63.030666,167.178940 
	C63.042809,161.513916 63.256207,155.837555 62.963821,150.187775 
	C62.765545,146.356445 64.147514,144.222580 67.484138,142.274948 
	C110.502441,117.164543 153.427567,91.894524 196.379913,66.671066 
	C211.176422,57.981922 226.019836,49.371670 240.754669,40.579311 
	C243.808289,38.757198 246.156601,38.807297 249.279800,40.664948 
	C306.838196,74.900177 364.461914,109.025719 422.118683,143.095139 
	C425.042267,144.822678 426.280609,146.821182 426.269348,150.264679 
	C426.045654,218.744293 425.891693,287.224243 425.859039,355.704132 
	C425.857239,359.488159 423.825439,360.892761 421.060944,362.384521 
	C387.930786,380.262115 354.829102,398.192413 321.398132,416.288452 
M398.838959,137.264145 
	C397.245453,136.323547 395.651917,135.382965 393.691956,133.975250 
	C392.485962,133.311081 391.279999,132.646912 389.592773,131.528152 
	C388.968170,131.305084 388.343536,131.082001 387.357300,130.396484 
	C386.147247,129.842834 384.937195,129.289200 383.348389,128.108948 
	C380.605194,126.608131 377.862000,125.107315 374.966187,123.782455 
	C374.966187,123.782455 375.081970,123.984581 374.953125,123.560257 
	C374.749847,123.327171 374.494629,123.192726 373.603760,122.731903 
	C370.337097,120.820557 367.070404,118.909218 363.557251,116.419266 
	C362.383575,115.586479 361.209869,114.753685 359.787903,113.741951 
	C359.787903,113.741951 359.500916,113.635612 359.069824,113.103439 
	C353.742035,110.015671 348.414246,106.927910 342.830597,103.684334 
	C342.830597,103.684334 342.542725,103.601440 342.120331,103.058647 
	C338.197693,100.569489 334.345520,97.960060 330.339478,95.613266 
	C317.302246,87.975838 304.208771,80.434425 290.672119,72.371323 
	C276.677429,64.011398 262.680573,55.655060 248.689621,47.288860 
	C245.384644,45.312576 242.475098,46.202812 239.367798,48.054245 
	C224.927994,56.657993 210.376892,65.074722 195.911179,73.635338 
	C181.885101,81.935776 167.914490,90.329948 153.218536,98.879333 
	C126.290298,114.610680 99.333183,130.293259 72.501816,146.188126 
	C70.796265,147.198486 69.162666,149.808029 69.054939,151.759689 
	C68.736931,157.520691 69.202484,163.324951 69.281120,170.032059 
	C69.282509,177.351852 69.283897,184.671631 69.022301,192.864243 
	C69.109688,195.572952 69.197083,198.281647 69.233597,201.927429 
	C69.238762,209.285400 69.243927,216.643387 68.985939,224.906799 
	C69.048363,238.266937 69.110786,251.627075 69.122383,265.787445 
	C69.143806,266.855713 69.165237,267.924011 68.944717,269.798248 
	C68.925919,270.925476 68.907120,272.052673 68.775032,274.089264 
	C68.738388,299.464294 68.631943,324.839783 68.794899,350.213531 
	C68.808235,352.290466 70.657341,354.355560 71.879021,356.249634 
	C71.879021,356.249634 71.667694,356.444763 72.070343,356.953369 
	C73.036560,357.423431 74.002769,357.893494 75.143738,358.475250 
	C75.143738,358.475250 75.350441,358.492493 75.789589,359.012421 
	C77.195709,359.689911 78.601830,360.367432 80.241302,361.121155 
	C80.241302,361.121155 80.486191,361.104095 80.860214,361.619141 
	C81.212112,361.848022 81.564018,362.076904 82.366150,362.636200 
	C83.050179,362.917328 83.734215,363.198486 84.877457,363.987274 
	C87.555099,365.370972 90.232735,366.754669 93.368896,368.534454 
	C94.448608,369.063843 95.528320,369.593231 96.992416,370.503693 
	C97.318604,370.646271 97.644798,370.788879 98.309517,371.078339 
	C98.309517,371.078339 98.671555,371.149658 99.040321,371.545441 
	C99.361671,371.701599 99.683022,371.857727 100.540619,372.453308 
	C103.621719,374.015930 106.702812,375.578552 110.252831,377.564850 
	C110.820625,377.831512 111.388420,378.098175 112.395470,378.746948 
	C113.129150,378.945801 113.862823,379.144653 114.710846,379.375275 
	C114.710846,379.375275 114.745544,379.261780 115.049339,379.869781 
	C117.005287,381.053406 118.961227,382.237030 121.246925,383.730743 
	C121.661293,383.887787 122.075653,384.044830 123.020187,384.691498 
	C161.862137,405.982941 200.724213,427.237946 239.514557,448.623016 
	C243.336731,450.730164 246.385193,449.762054 249.778625,447.922577 
	C304.386230,418.321716 359.001556,388.735016 413.680420,359.266174 
	C417.856476,357.015564 419.609680,354.221466 419.612823,349.433258 
	C419.655029,284.977356 419.793518,220.521347 420.101868,156.066284 
	C420.128357,150.525803 418.161896,147.209381 412.645233,145.203735 
	C411.963257,145.121185 411.281281,145.038651 410.335815,144.299316 
	C409.577209,143.772156 408.818604,143.244980 407.694153,142.324814 
	C407.214874,142.094940 406.735626,141.865067 405.812897,141.125443 
	C403.573486,139.997086 401.334106,138.868744 399.077332,137.844376 
	C399.077332,137.844376 399.181305,137.861694 398.838959,137.264145 
z"/>
<path fill="#7F0102" opacity="1.000000" stroke="none" 
	d="
M413.066406,145.529938 
	C418.161896,147.209381 420.128357,150.525803 420.101868,156.066284 
	C419.793518,220.521347 419.655029,284.977356 419.612823,349.433258 
	C419.609680,354.221466 417.856476,357.015564 413.680420,359.266174 
	C359.001556,388.735016 304.386230,418.321716 249.778625,447.922577 
	C246.385193,449.762054 243.336731,450.730164 239.514557,448.623016 
	C200.724213,427.237946 161.862137,405.982941 123.254211,384.414001 
	C129.517548,385.147644 135.546860,386.158813 141.676926,387.186859 
	C141.322021,386.568176 141.003983,385.588531 140.352341,384.948517 
	C136.800720,381.460205 137.990753,379.603546 142.139221,377.747864 
	C145.581802,376.207947 149.251709,374.282043 151.664520,371.517761 
	C156.910797,365.507263 162.407715,360.366394 170.692352,359.294861 
	C178.490768,350.563690 190.821838,346.616669 196.098526,335.223633 
	C196.874329,333.548584 197.654236,331.875397 198.432251,330.201355 
	C196.444183,329.508087 194.474442,328.285492 192.464798,328.215881 
	C184.977997,327.956635 177.478119,328.075897 169.588425,328.046570 
	C167.183685,327.390015 165.173660,326.739990 163.612228,326.042084 
	C186.723770,326.003387 209.386703,326.017609 232.049652,326.018921 
	C239.817688,326.019379 239.941055,325.900909 239.945236,318.231995 
	C239.955765,298.901794 239.917435,279.571472 239.989090,260.241547 
	C239.997559,257.957336 239.041138,254.903366 242.748672,254.715363 
	C242.153229,256.761383 241.297180,258.507324 241.323105,260.240051 
	C241.431885,267.508636 241.673233,274.782379 242.172729,282.033081 
	C242.298508,283.858978 243.252441,285.842560 244.387131,287.323578 
	C245.507782,288.786224 247.338989,289.704468 248.858490,290.861542 
	C249.887238,289.271088 251.378525,287.807678 251.856735,286.066040 
	C253.211349,281.132721 254.151398,276.085571 255.483398,271.335907 
	C256.653717,274.074707 257.647583,276.542542 258.528351,279.050049 
	C263.436005,293.021545 268.334839,306.996185 273.190369,320.985840 
	C274.179382,323.835510 275.370422,326.020660 279.009552,326.007690 
	C300.481293,325.931213 321.953552,325.968628 343.425507,326.018951 
	C347.427765,326.028320 348.383209,324.278473 347.132782,320.654480 
	C345.015961,314.519623 343.015015,308.343964 341.024689,302.166351 
	C336.026489,286.652496 331.061493,271.127930 326.106201,255.189178 
	C326.070770,251.859131 326.012329,248.947586 325.896332,245.567932 
	C325.871552,226.858109 325.904358,208.616379 325.998779,189.970718 
	C326.376343,188.029129 326.692261,186.491470 327.010376,185.424316 
	C327.034821,191.262161 327.057068,196.629501 327.070801,202.464691 
	C327.352905,208.900269 327.408020,214.892426 328.023010,220.826538 
	C328.388794,224.356110 330.264679,225.764603 334.358643,224.524216 
	C339.250549,223.042084 343.712067,221.615402 346.665161,216.974762 
	C348.639679,213.871841 351.257446,211.170639 353.662750,208.354019 
	C354.395325,207.496185 355.275299,206.411407 356.263367,206.179855 
	C364.815857,204.175690 370.087433,197.222733 376.913849,192.639313 
	C378.949707,191.272385 381.412933,189.755539 382.353760,187.700150 
	C384.639862,182.705719 388.667694,179.923813 393.296875,178.033813 
	C402.461548,174.292068 408.893524,167.607422 414.506744,159.815491 
	C417.009583,156.341187 419.163513,153.174377 414.481232,149.640305 
	C413.521973,148.916260 413.513275,146.932846 413.066406,145.529938 
z"/>
<path fill="#BF0000" opacity="1.000000" stroke="none" 
	d="
M69.285286,191.991425 
	C69.283897,184.671631 69.282509,177.351852 69.540146,169.279434 
	C70.151978,164.423080 70.783691,160.319321 70.783379,156.215607 
	C70.783020,151.615479 72.302132,148.517563 76.496521,146.108536 
	C93.645905,136.258835 110.642136,126.140953 127.642372,116.033707 
	C136.481979,110.778244 145.212372,105.339104 154.331497,99.876358 
	C157.042755,98.570190 159.488159,97.495743 161.775146,96.151749 
	C185.700470,82.091553 209.691574,68.139359 233.455566,53.810810 
	C241.276230,49.095329 247.935120,48.523251 255.934830,53.953640 
	C267.192017,61.595287 279.295227,67.990601 291.263916,75.089317 
	C292.028595,75.791725 292.566040,76.323685 292.944946,77.168686 
	C288.887146,81.999481 285.309540,86.854805 281.009521,90.951973 
	C275.262787,96.427666 269.592163,102.575882 262.689972,106.060776 
	C257.056091,108.905312 252.241592,112.246468 247.775452,116.388763 
	C245.847168,118.177231 244.590042,120.763763 242.523117,122.314934 
	C235.094742,127.889748 227.410141,133.121811 219.915985,138.611206 
	C217.940796,140.058014 216.384720,142.063202 214.494247,143.642044 
	C208.561600,148.596725 202.956436,154.113571 196.431610,158.122177 
	C192.809158,160.347656 190.726456,162.222198 190.446533,166.413757 
	C180.933319,166.634338 171.880081,166.800003 162.534637,167.160522 
	C161.505936,169.445755 160.249512,171.507599 160.133026,173.631989 
	C159.817001,179.394516 159.984421,185.183548 159.647003,191.102600 
	C152.817200,196.014526 146.250443,200.719620 139.806839,205.587753 
	C136.956940,207.740860 134.453064,210.350555 131.613892,212.519730 
	C129.125351,214.421005 126.384361,215.991150 123.760590,217.716263 
	C116.798943,222.293488 112.711555,230.718140 103.690857,232.620193 
	C102.586601,232.853043 101.771706,234.373505 100.782951,235.252548 
	C93.885330,241.384781 86.973434,247.500961 80.074303,253.631500 
	C77.262352,256.130157 74.107468,257.149597 70.362610,255.500488 
	C70.253288,251.905045 70.241089,248.772919 70.125893,245.644577 
	C69.860199,238.429184 69.544502,231.215652 69.249092,224.001358 
	C69.243927,216.643387 69.238762,209.285400 69.412827,201.109909 
	C69.489799,197.525406 69.387543,194.758408 69.285286,191.991425 
z"/>
<path fill="#B60000" opacity="1.000000" stroke="none" 
	d="
M70.412949,255.965500 
	C74.107468,257.149597 77.262352,256.130157 80.074303,253.631500 
	C86.973434,247.500961 93.885330,241.384781 100.782951,235.252548 
	C101.771706,234.373505 102.586601,232.853043 103.690857,232.620193 
	C112.711555,230.718140 116.798943,222.293488 123.760590,217.716263 
	C126.384361,215.991150 129.125351,214.421005 131.613892,212.519730 
	C134.453064,210.350555 136.956940,207.740860 139.806839,205.587753 
	C146.250443,200.719620 152.817200,196.014526 159.657043,191.575378 
	C159.990585,199.610138 160.000946,207.312607 160.011932,215.388123 
	C160.007263,216.508270 160.001953,217.255402 159.720764,218.193527 
	C155.656937,226.199707 149.046173,230.845215 141.491516,234.469025 
	C140.622498,234.885880 139.975403,235.748199 139.188644,236.356400 
	C132.116806,241.823257 124.966415,247.191193 117.975777,252.759750 
	C107.774353,260.885956 97.822052,269.330780 87.490875,277.285645 
	C82.481697,281.142639 78.358757,287.598724 70.301682,284.518219 
	C70.170380,280.373322 70.076012,276.686310 69.982086,272.653137 
	C69.717239,271.202057 69.451950,270.097168 69.186661,268.992279 
	C69.165237,267.924011 69.143806,266.855713 69.305206,265.024048 
	C69.796333,261.495575 70.104637,258.730530 70.412949,255.965500 
z"/>
<path fill="#9A0202" opacity="1.000000" stroke="none" 
	d="
M80.486191,361.104095 
	C80.486191,361.104095 80.241302,361.121155 79.941910,360.794495 
	C78.211830,359.809418 76.781136,359.150940 75.350441,358.492493 
	C75.350441,358.492493 75.143738,358.475250 74.849121,358.158875 
	C73.592232,357.376587 72.629967,356.910675 71.667694,356.444763 
	C71.667694,356.444763 71.879021,356.249634 71.653358,355.950317 
	C71.031212,350.761627 70.634727,345.872284 70.505997,341.186035 
	C72.103500,344.542542 73.433243,347.695923 75.005020,351.423309 
	C76.152145,350.051514 77.080376,349.414062 77.325783,348.576538 
	C80.567802,337.512604 91.083725,333.470612 98.640755,326.645233 
	C102.658142,323.016815 107.647835,320.484558 112.061371,317.269043 
	C115.822792,314.528595 119.586273,311.734192 123.004089,308.589050 
	C135.425949,297.158142 152.107758,290.268402 160.094009,274.236115 
	C160.432938,274.961060 160.665009,275.440216 160.910919,276.336243 
	C160.921173,277.865326 160.917603,278.977509 160.800110,280.419800 
	C160.764313,282.809174 160.842422,284.868439 160.940750,287.392883 
	C160.953400,291.578094 160.945816,295.298126 160.844543,299.295715 
	C160.815948,300.717560 160.881042,301.861877 160.962402,303.394653 
	C160.949982,304.811829 160.921310,305.840576 160.628784,307.070740 
	C154.366653,313.681854 148.673981,320.416656 142.290909,326.416992 
	C134.719910,333.534027 126.629631,340.109985 118.597992,346.718170 
	C116.362915,348.557129 113.491249,349.603607 110.997139,351.151398 
	C108.112679,352.941437 104.553230,354.318573 102.666245,356.888000 
	C99.595657,361.069061 95.762863,362.171265 91.116035,362.335815 
	C89.723778,362.385162 88.343155,362.763306 86.532684,363.058289 
	C85.544853,363.243713 84.981552,363.361664 84.418243,363.479614 
	C83.734215,363.198486 83.050179,362.917328 81.924393,362.246887 
	C81.150490,361.606415 80.818344,361.355255 80.486191,361.104095 
z"/>
<path fill="#A40000" opacity="1.000000" stroke="none" 
	d="
M342.542725,103.601440 
	C342.542725,103.601440 342.830597,103.684334 343.067841,104.091164 
	C347.871643,107.651047 352.438202,110.804100 357.016052,114.369354 
	C358.337616,120.162735 359.023529,125.276543 351.929901,127.244698 
	C351.513550,127.360214 351.249451,127.959709 350.869476,128.280716 
	C345.416779,132.887360 340.207672,137.831406 334.444427,142.011002 
	C323.110413,150.230606 311.467468,158.024246 299.489136,166.003387 
	C286.340668,166.014374 273.655334,166.016083 261.196320,165.770569 
	C262.217285,164.925766 263.011749,164.327866 263.806702,163.730606 
	C272.159393,157.455368 284.175812,156.172775 289.082336,145.134583 
	C289.490326,144.216705 290.879089,143.706833 291.855255,143.073761 
	C302.351196,136.266876 311.626099,128.037384 320.461334,119.209076 
	C323.440887,116.231873 327.229889,113.912155 330.973938,111.895226 
	C334.779480,109.845184 337.440369,107.308395 338.375305,102.991707 
	C340.013092,103.246620 341.277924,103.424034 342.542725,103.601440 
z"/>
<path fill="#870000" opacity="1.000000" stroke="none" 
	d="
M412.855835,145.366837 
	C413.513275,146.932846 413.521973,148.916260 414.481232,149.640305 
	C419.163513,153.174377 417.009583,156.341187 414.506744,159.815491 
	C408.893524,167.607422 402.461548,174.292068 393.296875,178.033813 
	C388.667694,179.923813 384.639862,182.705719 382.353760,187.700150 
	C381.412933,189.755539 378.949707,191.272385 376.913849,192.639313 
	C370.087433,197.222733 364.815857,204.175690 356.263367,206.179855 
	C355.275299,206.411407 354.395325,207.496185 353.662750,208.354019 
	C351.257446,211.170639 348.639679,213.871841 346.665161,216.974762 
	C343.712067,221.615402 339.250549,223.042084 334.358643,224.524216 
	C330.264679,225.764603 328.388794,224.356110 328.023010,220.826538 
	C327.408020,214.892426 327.352905,208.900269 327.341614,202.630081 
	C329.734497,202.662216 332.516724,204.007950 333.833221,203.137314 
	C337.441254,200.751190 340.441772,197.442642 343.665100,194.480026 
	C345.362030,192.920319 346.922272,191.195755 348.715820,189.759964 
	C356.732971,183.342072 364.839508,177.035919 372.859283,170.621292 
	C378.692352,165.955688 383.899719,160.154297 390.379761,156.751801 
	C396.716522,153.424545 399.336395,147.401505 404.297363,142.837433 
	C405.142029,142.332397 405.699188,141.983795 406.256348,141.635193 
	C406.735626,141.865067 407.214874,142.094940 408.090027,142.789764 
	C409.190369,143.821838 409.894836,144.388977 410.599304,144.956100 
	C411.281281,145.038651 411.963257,145.121185 412.855835,145.366837 
z"/>
<path fill="#8F0001" opacity="1.000000" stroke="none" 
	d="
M404.009888,142.993866 
	C399.336395,147.401505 396.716522,153.424545 390.379761,156.751801 
	C383.899719,160.154297 378.692352,165.955688 372.859283,170.621292 
	C364.839508,177.035919 356.732971,183.342072 348.715820,189.759964 
	C346.922272,191.195755 345.362030,192.920319 343.665100,194.480026 
	C340.441772,197.442642 337.441254,200.751190 333.833221,203.137314 
	C332.516724,204.007950 329.734497,202.662216 327.350159,202.162231 
	C327.057068,196.629501 327.034821,191.262161 327.004761,185.003464 
	C326.998840,182.418106 327.000641,180.724106 327.002228,178.609467 
	C327.000488,176.789337 326.998993,175.389832 327.011566,173.725861 
	C327.038788,173.285309 327.051910,173.109222 327.395813,173.006470 
	C329.023804,172.996078 331.138672,173.374802 331.488892,172.755554 
	C334.299622,167.785461 339.862671,168.903732 343.695618,166.755447 
	C351.068115,162.623291 357.611115,156.951309 364.272827,151.635590 
	C367.671143,148.923874 370.588562,145.607773 373.709076,142.550323 
	C375.440796,140.853592 378.899689,138.487854 378.549774,137.526108 
	C377.154755,133.691513 379.629395,131.597977 381.491089,128.929031 
	C382.533722,128.846207 383.130432,128.790878 383.727142,128.735565 
	C384.937195,129.289200 386.147247,129.842834 387.831360,130.785858 
	C388.894958,131.444412 389.484467,131.713577 390.074005,131.982742 
	C391.279999,132.646912 392.485962,133.311081 394.040344,134.538620 
	C395.986267,136.021896 397.583801,136.941788 399.181305,137.861694 
	C399.181305,137.861694 399.077332,137.844376 399.233398,138.095734 
	C400.929596,139.896011 402.469727,141.444946 404.009888,142.993866 
M382.009857,135.037689 
	C382.009857,135.037689 381.969269,135.032410 382.009857,135.037689 
z"/>
<path fill="#8F0101" opacity="1.000000" stroke="none" 
	d="
M86.957207,362.990814 
	C88.343155,362.763306 89.723778,362.385162 91.116035,362.335815 
	C95.762863,362.171265 99.595657,361.069061 102.666245,356.888000 
	C104.553230,354.318573 108.112679,352.941437 110.997139,351.151398 
	C113.491249,349.603607 116.362915,348.557129 118.597992,346.718170 
	C126.629631,340.109985 134.719910,333.534027 142.290909,326.416992 
	C148.673981,320.416656 154.366653,313.681854 160.668945,307.476013 
	C161.133621,309.723358 161.294281,311.766907 161.545563,314.268616 
	C161.562225,316.896606 161.488251,319.066406 161.397110,321.530884 
	C161.868591,323.236572 162.357224,324.647583 162.928711,326.031982 
	C163.011551,326.005310 163.163635,326.089966 163.163635,326.089966 
	C165.173660,326.739990 167.183685,327.390015 169.699127,328.345673 
	C172.013474,332.351349 170.453308,334.621063 167.085999,336.232422 
	C165.303543,337.085388 163.366974,337.854279 161.923965,339.137787 
	C155.473648,344.875122 149.232956,350.847656 142.805435,356.611298 
	C137.534973,361.337433 132.523926,366.544159 126.611092,370.298767 
	C122.306412,373.032227 117.316513,374.568481 114.596504,379.343506 
	C113.862823,379.144653 113.129150,378.945801 112.062225,378.354218 
	C111.080620,377.688049 110.432266,377.414612 109.783905,377.141174 
	C106.702812,375.578552 103.621719,374.015930 100.068008,372.064392 
	C99.287445,371.500183 98.979500,371.324921 98.671555,371.149658 
	C98.671555,371.149658 98.309517,371.078339 97.930084,370.845947 
	C97.236443,370.449921 96.922241,370.286255 96.608040,370.122620 
	C95.528320,369.593231 94.448608,369.063843 92.984634,368.047241 
	C90.719315,366.036987 88.838264,364.513885 86.957207,362.990814 
z"/>
<path fill="#990001" opacity="1.000000" stroke="none" 
	d="
M381.045197,128.956528 
	C379.629395,131.597977 377.154755,133.691513 378.549774,137.526108 
	C378.899689,138.487854 375.440796,140.853592 373.709076,142.550323 
	C370.588562,145.607773 367.671143,148.923874 364.272827,151.635590 
	C357.611115,156.951309 351.068115,162.623291 343.695618,166.755447 
	C339.862671,168.903732 334.299622,167.785461 331.488892,172.755554 
	C331.138672,173.374802 329.023804,172.996078 327.367065,172.612854 
	C327.054504,167.604645 324.383026,166.107758 320.309631,166.099915 
	C313.523834,166.086853 306.738098,166.031601 299.952332,165.994095 
	C311.467468,158.024246 323.110413,150.230606 334.444427,142.011002 
	C340.207672,137.831406 345.416779,132.887360 350.869476,128.280716 
	C351.249451,127.959709 351.513550,127.360214 351.929901,127.244698 
	C359.023529,125.276543 358.337616,120.162735 357.432526,114.325104 
	C358.392090,113.790977 358.946503,113.713295 359.500916,113.635612 
	C359.500916,113.635612 359.787903,113.741951 360.061981,114.107956 
	C361.491943,115.315262 362.647858,116.156563 363.803741,116.997871 
	C367.070404,118.909218 370.337097,120.820557 374.033722,123.091644 
	C374.660217,123.640221 374.866302,123.817955 375.081970,123.984581 
	C375.081970,123.984581 374.966187,123.782455 375.205170,124.006714 
	C377.311157,125.806160 379.178192,127.381340 381.045197,128.956528 
z"/>
<path fill="#860001" opacity="1.000000" stroke="none" 
	d="
M114.653671,379.359375 
	C117.316513,374.568481 122.306412,373.032227 126.611092,370.298767 
	C132.523926,366.544159 137.534973,361.337433 142.805435,356.611298 
	C149.232956,350.847656 155.473648,344.875122 161.923965,339.137787 
	C163.366974,337.854279 165.303543,337.085388 167.085999,336.232422 
	C170.453308,334.621063 172.013474,332.351349 170.093842,328.352203 
	C177.478119,328.075897 184.977997,327.956635 192.464798,328.215881 
	C194.474442,328.285492 196.444183,329.508087 198.432251,330.201355 
	C197.654236,331.875397 196.874329,333.548584 196.098526,335.223633 
	C190.821838,346.616669 178.490768,350.563690 170.692352,359.294861 
	C162.407715,360.366394 156.910797,365.507263 151.664520,371.517761 
	C149.251709,374.282043 145.581802,376.207947 142.139221,377.747864 
	C137.990753,379.603546 136.800720,381.460205 140.352341,384.948517 
	C141.003983,385.588531 141.322021,386.568176 141.676926,387.186859 
	C135.546860,386.158813 129.517548,385.147644 122.989120,384.169189 
	C122.075653,384.044830 121.661293,383.887787 120.926025,383.252808 
	C118.651924,381.603882 116.698730,380.432831 114.745544,379.261780 
	C114.745544,379.261780 114.710846,379.375275 114.653671,379.359375 
z"/>
<path fill="#9D1416" opacity="1.000000" stroke="none" 
	d="
M291.036682,74.918877 
	C279.295227,67.990601 267.192017,61.595287 255.934830,53.953640 
	C247.935120,48.523251 241.276230,49.095329 233.455566,53.810810 
	C209.691574,68.139359 185.700470,82.091553 161.775146,96.151749 
	C159.488159,97.495743 157.042755,98.570190 154.314758,99.551331 
	C153.945572,99.116234 153.932541,98.899590 153.919510,98.682953 
	C167.914490,90.329948 181.885101,81.935776 195.911179,73.635338 
	C210.376892,65.074722 224.927994,56.657993 239.367798,48.054245 
	C242.475098,46.202812 245.384644,45.312576 248.689621,47.288860 
	C262.680573,55.655060 276.677429,64.011398 290.881866,72.957039 
	C291.073303,74.001465 291.054993,74.460167 291.036682,74.918877 
z"/>
<path fill="#99191B" opacity="1.000000" stroke="none" 
	d="
M153.569031,98.781143 
	C153.932541,98.899590 153.945572,99.116234 153.975357,99.657898 
	C145.212372,105.339104 136.481979,110.778244 127.642372,116.033707 
	C110.642136,126.140953 93.645905,136.258835 76.496521,146.108536 
	C72.302132,148.517563 70.783020,151.615479 70.783379,156.215607 
	C70.783691,160.319321 70.151978,164.423080 69.580307,168.819550 
	C69.202484,163.324951 68.736931,157.520691 69.054939,151.759689 
	C69.162666,149.808029 70.796265,147.198486 72.501816,146.188126 
	C99.333183,130.293259 126.290298,114.610680 153.569031,98.781143 
z"/>
<path fill="#931516" opacity="1.000000" stroke="none" 
	d="
M291.263916,75.089317 
	C291.054993,74.460167 291.073303,74.001465 291.114258,73.199402 
	C304.208771,80.434425 317.302246,87.975838 330.339478,95.613266 
	C334.345520,97.960060 338.197693,100.569489 342.331543,103.330048 
	C341.277924,103.424034 340.013092,103.246620 338.100037,102.803925 
	C330.312012,98.304497 323.172272,94.070343 315.759888,89.680542 
	C314.351166,88.961525 313.215118,88.398148 311.795013,87.652321 
	C305.375153,83.931793 299.239288,80.393723 293.103455,76.855652 
	C292.566040,76.323685 292.028595,75.791725 291.263916,75.089317 
z"/>
<path fill="#831415" opacity="1.000000" stroke="none" 
	d="
M70.238243,340.982910 
	C70.634727,345.872284 71.031212,350.761627 71.540573,356.038574 
	C70.657341,354.355560 68.808235,352.290466 68.794899,350.213531 
	C68.631943,324.839783 68.738388,299.464294 69.104630,273.585632 
	C69.616692,273.054443 69.799171,273.026886 69.981644,272.999298 
	C70.076012,276.686310 70.170380,280.373322 70.244492,284.986572 
	C70.223915,293.931274 70.223610,301.949707 70.179565,310.438477 
	C70.169960,320.933502 70.204102,330.958191 70.238243,340.982910 
z"/>
<path fill="#861214" opacity="1.000000" stroke="none" 
	d="
M359.285370,113.369522 
	C358.946503,113.713295 358.392090,113.790977 357.421204,113.912903 
	C352.438202,110.804100 347.871643,107.651047 343.195770,104.169067 
	C348.414246,106.927910 353.742035,110.015671 359.285370,113.369522 
z"/>
<path fill="#911B1B" opacity="1.000000" stroke="none" 
	d="
M70.362610,255.500488 
	C70.104637,258.730530 69.796333,261.495575 69.330612,264.623901 
	C69.110786,251.627075 69.048363,238.266937 69.117516,224.454071 
	C69.544502,231.215652 69.860199,238.429184 70.125893,245.644577 
	C70.241089,248.772919 70.253288,251.905045 70.362610,255.500488 
z"/>
<path fill="#831415" opacity="1.000000" stroke="none" 
	d="
M86.532684,363.058289 
	C88.838264,364.513885 90.719315,366.036987 92.755371,367.849213 
	C90.232735,366.754669 87.555099,365.370972 84.647858,363.733459 
	C84.981552,363.361664 85.544853,363.243713 86.532684,363.058289 
z"/>
<path fill="#7F0102" opacity="1.000000" stroke="none" 
	d="
M381.491089,128.929031 
	C379.178192,127.381340 377.311157,125.806160 375.281494,123.918739 
	C377.862000,125.107315 380.605194,126.608131 383.537781,128.422256 
	C383.130432,128.790878 382.533722,128.846207 381.491089,128.929031 
z"/>
<path fill="#7F0102" opacity="1.000000" stroke="none" 
	d="
M404.297363,142.837433 
	C402.469727,141.444946 400.929596,139.896011 399.242065,138.043747 
	C401.334106,138.868744 403.573486,139.997086 406.034607,141.380325 
	C405.699188,141.983795 405.142029,142.332397 404.297363,142.837433 
z"/>
<path fill="#7F0102" opacity="1.000000" stroke="none" 
	d="
M114.897438,379.565796 
	C116.698730,380.432831 118.651924,381.603882 120.761147,383.097778 
	C118.961227,382.237030 117.005287,381.053406 114.897438,379.565796 
z"/>
<path fill="#7F0102" opacity="1.000000" stroke="none" 
	d="
M399.010132,137.562927 
	C397.583801,136.941788 395.986267,136.021896 394.223572,134.772186 
	C395.651917,135.382965 397.245453,136.323547 399.010132,137.562927 
z"/>
<path fill="#911B1B" opacity="1.000000" stroke="none" 
	d="
M69.153793,192.427826 
	C69.387543,194.758408 69.489799,197.525406 69.438263,200.641373 
	C69.197083,198.281647 69.109688,195.572952 69.153793,192.427826 
z"/>
<path fill="#831415" opacity="1.000000" stroke="none" 
	d="
M75.570015,358.752441 
	C76.781136,359.150940 78.211830,359.809418 79.825241,360.756409 
	C78.601830,360.367432 77.195709,359.689911 75.570015,358.752441 
z"/>
<path fill="#861214" opacity="1.000000" stroke="none" 
	d="
M363.680481,116.708572 
	C362.647858,116.156563 361.491943,115.315262 360.186127,114.197418 
	C361.209869,114.753685 362.383575,115.586479 363.680481,116.708572 
z"/>
<path fill="#831415" opacity="1.000000" stroke="none" 
	d="
M71.869019,356.699066 
	C72.629967,356.910675 73.592232,357.376587 74.761742,358.103027 
	C74.002769,357.893494 73.036560,357.423431 71.869019,356.699066 
z"/>
<path fill="#7F0102" opacity="1.000000" stroke="none" 
	d="
M410.467560,144.627716 
	C409.894836,144.388977 409.190369,143.821838 408.272949,142.986267 
	C408.818604,143.244980 409.577209,143.772156 410.467560,144.627716 
z"/>
<path fill="#911B1B" opacity="1.000000" stroke="none" 
	d="
M69.982086,272.653137 
	C69.799171,273.026886 69.616692,273.054443 69.161270,273.130920 
	C68.907120,272.052673 68.925919,270.925476 69.065689,269.395264 
	C69.451950,270.097168 69.717239,271.202057 69.982086,272.653137 
z"/>
<path fill="#7F0102" opacity="1.000000" stroke="none" 
	d="
M110.018372,377.353027 
	C110.432266,377.414612 111.080620,377.688049 111.842590,378.163147 
	C111.388420,378.098175 110.820625,377.831512 110.018372,377.353027 
z"/>
<path fill="#7F0102" opacity="1.000000" stroke="none" 
	d="
M389.833374,131.755447 
	C389.484467,131.713577 388.894958,131.444412 388.012177,131.017090 
	C388.343536,131.082001 388.968170,131.305084 389.833374,131.755447 
z"/>
<path fill="#7F0102" opacity="1.000000" stroke="none" 
	d="
M375.017548,123.772415 
	C374.866302,123.817955 374.660217,123.640221 374.325592,123.304153 
	C374.494629,123.192726 374.749847,123.327171 375.017548,123.772415 
z"/>
<path fill="#831415" opacity="1.000000" stroke="none" 
	d="
M80.673203,361.361633 
	C80.818344,361.355255 81.150490,361.606415 81.699280,362.081665 
	C81.564018,362.076904 81.212112,361.848022 80.673203,361.361633 
z"/>
<path fill="#831415" opacity="1.000000" stroke="none" 
	d="
M96.800232,370.313141 
	C96.922241,370.286255 97.236443,370.449921 97.760818,370.772522 
	C97.644798,370.788879 97.318604,370.646271 96.800232,370.313141 
z"/>
<path fill="#831415" opacity="1.000000" stroke="none" 
	d="
M98.855934,371.347534 
	C98.979500,371.324921 99.287445,371.500183 99.799881,371.844666 
	C99.683022,371.857727 99.361671,371.701599 98.855934,371.347534 
z"/>
<path fill="#5A5757" opacity="1.000000" stroke="none" 
	d="
M161.414276,321.236206 
	C161.488251,319.066406 161.562225,316.896606 161.671158,313.893433 
	C161.827866,309.742096 162.049408,306.424347 162.056198,303.106171 
	C162.141998,261.206696 162.168900,219.307022 162.316833,177.407776 
	C162.327728,174.321030 163.154251,171.237152 164.089355,168.231201 
	C166.737228,168.393539 168.897476,168.552353 171.057419,168.548615 
	C219.972092,168.464035 268.886749,168.364655 317.801422,168.258881 
	C323.964020,168.245560 324.944916,169.214737 325.194153,175.475174 
	C325.391937,180.443649 325.685883,185.408295 325.937164,190.374649 
	C325.904358,208.616379 325.871552,226.858109 325.777222,245.928024 
	C325.838165,249.706696 325.960663,252.657166 326.083160,255.607651 
	C331.061493,271.127930 336.026489,286.652496 341.024689,302.166351 
	C343.015015,308.343964 345.015961,314.519623 347.132782,320.654480 
	C348.383209,324.278473 347.427765,326.028320 343.425507,326.018951 
	C321.953552,325.968628 300.481293,325.931213 279.009552,326.007690 
	C275.370422,326.020660 274.179382,323.835510 273.190369,320.985840 
	C268.334839,306.996185 263.436005,293.021545 258.528351,279.050049 
	C257.647583,276.542542 256.653717,274.074707 255.456772,271.254303 
	C255.201462,270.920044 255.051941,270.847595 255.063385,270.578491 
	C255.005325,269.959991 254.935822,269.610626 254.805206,268.892944 
	C253.513092,265.343048 252.282089,262.161530 250.968491,258.667633 
	C250.593369,258.047913 250.300842,257.740540 250.104614,257.397949 
	C250.200912,257.362732 250.207260,257.157776 250.166809,256.828552 
	C249.756973,255.974136 249.387573,255.448959 249.012360,254.958496 
	C249.006546,254.993210 249.076080,255.004135 248.980652,254.836380 
	C248.706406,254.458847 248.479218,254.356262 247.766937,254.272736 
	C245.851364,254.259460 244.372543,254.334335 242.893723,254.409210 
	C239.041138,254.903366 239.997559,257.957336 239.989090,260.241547 
	C239.917435,279.571472 239.955765,298.901794 239.945236,318.231995 
	C239.941055,325.900909 239.817688,326.019379 232.049652,326.018921 
	C209.386703,326.017609 186.723770,326.003387 163.612228,326.042084 
	C163.163635,326.089966 163.011551,326.005310 162.811157,325.686829 
	C162.211929,323.990997 161.813095,322.613586 161.414276,321.236206 
z"/>
<path fill="#8C1415" opacity="1.000000" stroke="none" 
	d="
M325.998779,189.970718 
	C325.685883,185.408295 325.391937,180.443649 325.194153,175.475174 
	C324.944916,169.214737 323.964020,168.245560 317.801422,168.258881 
	C268.886749,168.364655 219.972092,168.464035 171.057419,168.548615 
	C168.897476,168.552353 166.737228,168.393539 163.978638,168.093933 
	C163.195709,167.573486 163.011276,167.269577 162.826859,166.965668 
	C171.880081,166.800003 180.933319,166.634338 190.892792,166.498291 
	C199.197144,166.352798 206.595276,166.177673 214.451630,166.027679 
	C218.267197,166.048141 221.624496,166.043488 225.451263,166.059677 
	C237.603836,166.059616 249.286926,166.038696 260.970032,166.017792 
	C273.655334,166.016083 286.340668,166.014374 299.489136,166.003387 
	C306.738098,166.031601 313.523834,166.086853 320.309631,166.099915 
	C324.383026,166.107758 327.054504,167.604645 327.036285,172.539551 
	C327.051910,173.109222 327.038788,173.285309 326.910645,174.033173 
	C326.864563,176.079987 326.933533,177.555038 327.002472,179.030090 
	C327.000641,180.724106 326.998840,182.418106 327.002594,184.532959 
	C326.692261,186.491470 326.376343,188.029129 325.998779,189.970718 
z"/>
<path fill="#8A0102" opacity="1.000000" stroke="none" 
	d="
M250.207260,257.157776 
	C250.207260,257.157776 250.200912,257.362732 250.273270,257.659790 
	C250.580780,258.297913 250.815918,258.638947 251.051086,258.980011 
	C252.282089,262.161530 253.513092,265.343048 254.776764,269.050476 
	C254.890274,270.000122 254.971100,270.423859 255.051941,270.847595 
	C255.051941,270.847595 255.201462,270.920044 255.228088,271.001648 
	C254.151398,276.085571 253.211349,281.132721 251.856735,286.066040 
	C251.378525,287.807678 249.887238,289.271088 248.858490,290.861542 
	C247.338989,289.704468 245.507782,288.786224 244.387131,287.323578 
	C243.252441,285.842560 242.298508,283.858978 242.172729,282.033081 
	C241.673233,274.782379 241.431885,267.508636 241.323105,260.240051 
	C241.297180,258.507324 242.153229,256.761383 242.748672,254.715363 
	C244.372543,254.334335 245.851364,254.259460 247.908173,254.383743 
	C248.678925,254.728729 248.875565,254.869141 249.076080,255.004135 
	C249.076080,255.004135 249.006546,254.993210 249.141876,255.246078 
	C249.587219,256.051880 249.897247,256.604828 250.207260,257.157776 
z"/>
<path fill="#8C1415" opacity="1.000000" stroke="none" 
	d="
M326.106201,255.189178 
	C325.960663,252.657166 325.838165,249.706696 325.834778,246.396118 
	C326.012329,248.947586 326.070770,251.859131 326.106201,255.189178 
z"/>
<path fill="#B80000" opacity="1.000000" stroke="none" 
	d="
M213.993393,166.002563 
	C206.595276,166.177673 199.197144,166.352798 191.352768,166.443390 
	C190.726456,162.222198 192.809158,160.347656 196.431610,158.122177 
	C202.956436,154.113571 208.561600,148.596725 214.494247,143.642044 
	C216.384720,142.063202 217.940796,140.058014 219.915985,138.611206 
	C227.410141,133.121811 235.094742,127.889748 242.523117,122.314934 
	C244.590042,120.763763 245.847168,118.177231 247.775452,116.388763 
	C252.241592,112.246468 257.056091,108.905312 262.689972,106.060776 
	C269.592163,102.575882 275.262787,96.427666 281.009521,90.951973 
	C285.309540,86.854805 288.887146,81.999481 292.944946,77.168686 
	C299.239288,80.393723 305.375153,83.931793 311.753418,88.006699 
	C311.072723,89.671997 310.358673,91.155258 309.179871,91.850021 
	C307.153320,93.044426 304.806946,93.681526 302.647766,94.668411 
	C295.674988,97.855446 289.785797,102.437454 284.204590,107.736961 
	C277.014954,114.563683 269.247375,120.806709 261.487183,126.998444 
	C256.607971,130.891495 251.710770,135.316696 246.050079,137.528503 
	C239.650787,140.028885 236.013031,144.617966 231.871262,149.367569 
	C228.509933,153.222183 224.163361,156.207001 220.343964,159.676865 
	C218.134827,161.683853 216.104309,163.887451 213.993393,166.002563 
M294.009277,82.717422 
	C294.423492,83.070267 294.837708,83.423103 295.251923,83.775955 
	C295.417175,83.376457 295.582428,82.976967 295.747681,82.577469 
	C295.213440,82.515068 294.679169,82.452667 294.009277,82.717422 
z"/>
<path fill="#AE0B08" opacity="1.000000" stroke="none" 
	d="
M162.534637,167.160522 
	C163.011276,167.269577 163.195709,167.573486 163.490860,168.014679 
	C163.154251,171.237152 162.327728,174.321030 162.316833,177.407776 
	C162.168900,219.307022 162.141998,261.206696 162.056198,303.106171 
	C162.049408,306.424347 161.827866,309.742096 161.580521,313.435242 
	C161.294281,311.766907 161.133621,309.723358 160.932800,307.274567 
	C160.921310,305.840576 160.949982,304.811829 160.982117,302.995850 
	C160.969788,301.145111 160.954010,300.081635 160.938232,299.018188 
	C160.945816,295.298126 160.953400,291.578094 160.961517,286.967346 
	C160.946060,284.080994 160.930038,282.085327 160.914032,280.089691 
	C160.917603,278.977509 160.921173,277.865326 160.922363,275.964264 
	C160.906509,274.423859 160.893036,273.672363 160.885223,272.522339 
	C160.892258,271.061096 160.893646,269.998291 160.914062,268.475159 
	C160.916916,262.046387 160.900696,256.077972 160.884399,249.708832 
	C160.879684,248.502899 160.875092,247.697723 160.885483,246.430817 
	C160.604095,235.651093 160.307693,225.333099 160.011292,215.015091 
	C160.000946,207.312607 159.990585,199.610138 159.970184,191.434875 
	C159.984421,185.183548 159.817001,179.394516 160.133026,173.631989 
	C160.249512,171.507599 161.505936,169.445755 162.534637,167.160522 
z"/>
<path fill="#AD0001" opacity="1.000000" stroke="none" 
	d="
M70.223312,309.968170 
	C70.223610,301.949707 70.223915,293.931274 70.281410,285.444458 
	C78.358757,287.598724 82.481697,281.142639 87.490875,277.285645 
	C97.822052,269.330780 107.774353,260.885956 117.975777,252.759750 
	C124.966415,247.191193 132.116806,241.823257 139.188644,236.356400 
	C139.975403,235.748199 140.622498,234.885880 141.491516,234.469025 
	C149.046173,230.845215 155.656937,226.199707 159.727524,218.661774 
	C159.999802,225.957794 159.989426,232.976562 159.742310,240.262115 
	C158.967514,242.070007 158.140701,243.575729 157.946365,245.159058 
	C157.399292,249.616135 155.147095,252.804565 151.527908,255.329147 
	C148.543716,257.410828 145.798615,259.832001 142.903336,262.044922 
	C134.658478,268.346680 126.321457,274.530579 118.173264,280.954346 
	C115.601097,282.982147 113.921379,286.469727 111.123909,287.823517 
	C102.145866,292.168335 94.796844,298.373993 87.852074,305.371643 
	C83.067291,310.192871 77.702332,314.633057 70.223312,309.968170 
z"/>
<path fill="#9A0202" opacity="1.000000" stroke="none" 
	d="
M159.979034,239.995346 
	C159.989426,232.976562 159.999802,225.957794 160.003418,218.470764 
	C160.001953,217.255402 160.007263,216.508270 160.011932,215.388123 
	C160.307693,225.333099 160.604095,235.651093 160.772278,246.076965 
	C160.422379,244.121674 160.200714,242.058517 159.979034,239.995346 
z"/>
<path fill="#A40101" opacity="1.000000" stroke="none" 
	d="
M159.742310,240.262115 
	C160.200714,242.058517 160.422379,244.121674 160.757263,246.538696 
	C160.875092,247.697723 160.879684,248.502899 160.764664,250.087067 
	C160.728363,256.889221 160.811691,262.912354 160.895020,268.935516 
	C160.893646,269.998291 160.892258,271.061096 160.736755,272.701416 
	C160.384308,273.516205 160.185822,273.753326 159.987152,273.990295 
	C152.107758,290.268402 135.425949,297.158142 123.004089,308.589050 
	C119.586273,311.734192 115.822792,314.528595 112.061371,317.269043 
	C107.647835,320.484558 102.658142,323.016815 98.640755,326.645233 
	C91.083725,333.470612 80.567802,337.512604 77.325783,348.576538 
	C77.080376,349.414062 76.152145,350.051514 75.005020,351.423309 
	C73.433243,347.695923 72.103500,344.542542 70.505997,341.186035 
	C70.204102,330.958191 70.169960,320.933502 70.179565,310.438477 
	C77.702332,314.633057 83.067291,310.192871 87.852074,305.371643 
	C94.796844,298.373993 102.145866,292.168335 111.123909,287.823517 
	C113.921379,286.469727 115.601097,282.982147 118.173264,280.954346 
	C126.321457,274.530579 134.658478,268.346680 142.903336,262.044922 
	C145.798615,259.832001 148.543716,257.410828 151.527908,255.329147 
	C155.147095,252.804565 157.399292,249.616135 157.946365,245.159058 
	C158.140701,243.575729 158.967514,242.070007 159.742310,240.262115 
z"/>
<path fill="#8F0101" opacity="1.000000" stroke="none" 
	d="
M160.800110,280.419800 
	C160.930038,282.085327 160.946060,284.080994 160.941315,286.502197 
	C160.842422,284.868439 160.764313,282.809174 160.800110,280.419800 
z"/>
<path fill="#8F0101" opacity="1.000000" stroke="none" 
	d="
M160.844543,299.295715 
	C160.954010,300.081635 160.969788,301.145111 160.965851,302.607361 
	C160.881042,301.861877 160.815948,300.717560 160.844543,299.295715 
z"/>
<path fill="#8F0101" opacity="1.000000" stroke="none" 
	d="
M160.094009,274.236115 
	C160.185822,273.753326 160.384308,273.516205 160.731079,273.099884 
	C160.893036,273.672363 160.906509,274.423859 160.908539,275.547363 
	C160.665009,275.440216 160.432938,274.961060 160.094009,274.236115 
z"/>
<path fill="#AD0001" opacity="1.000000" stroke="none" 
	d="
M261.196320,165.770569 
	C249.286926,166.038696 237.603836,166.059616 225.689758,165.826843 
	C226.668991,165.105896 227.876785,164.632294 229.089798,164.172379 
	C235.188828,161.859970 241.510651,160.140274 245.657532,154.281631 
	C247.619247,151.510117 250.524933,149.310684 253.279282,147.215332 
	C260.011414,142.093933 266.991394,137.296890 273.692047,132.136215 
	C276.555298,129.931030 278.689392,126.737915 281.640411,124.695297 
	C293.021576,116.817558 305.224243,110.121063 313.787811,98.600746 
	C316.045441,95.563644 317.250275,93.283081 316.032501,89.836182 
	C323.172272,94.070343 330.312012,98.304497 337.727051,102.726425 
	C337.440369,107.308395 334.779480,109.845184 330.973938,111.895226 
	C327.229889,113.912155 323.440887,116.231873 320.461334,119.209076 
	C311.626099,128.037384 302.351196,136.266876 291.855255,143.073761 
	C290.879089,143.706833 289.490326,144.216705 289.082336,145.134583 
	C284.175812,156.172775 272.159393,157.455368 263.806702,163.730606 
	C263.011749,164.327866 262.217285,164.925766 261.196320,165.770569 
z"/>
<path fill="#7F0102" opacity="1.000000" stroke="none" 
	d="
M327.002228,178.609467 
	C326.933533,177.555038 326.864563,176.079987 326.896545,174.297638 
	C326.998993,175.389832 327.000488,176.789337 327.002228,178.609467 
z"/>
<path fill="#990001" opacity="1.000000" stroke="none" 
	d="
M381.989563,135.035049 
	C381.969269,135.032410 382.009857,135.037689 381.989563,135.035049 
z"/>
<path fill="#AE0B08" opacity="1.000000" stroke="none" 
	d="
M161.397110,321.530884 
	C161.813095,322.613586 162.211929,323.990997 162.728302,325.713501 
	C162.357224,324.647583 161.868591,323.236572 161.397110,321.530884 
z"/>
<path fill="#B30001" opacity="1.000000" stroke="none" 
	d="
M315.759888,89.680542 
	C317.250275,93.283081 316.045441,95.563644 313.787811,98.600746 
	C305.224243,110.121063 293.021576,116.817558 281.640411,124.695297 
	C278.689392,126.737915 276.555298,129.931030 273.692047,132.136215 
	C266.991394,137.296890 260.011414,142.093933 253.279282,147.215332 
	C250.524933,149.310684 247.619247,151.510117 245.657532,154.281631 
	C241.510651,160.140274 235.188828,161.859970 229.089798,164.172379 
	C227.876785,164.632294 226.668991,165.105896 225.220306,165.806000 
	C221.624496,166.043488 218.267197,166.048141 214.451630,166.027679 
	C216.104309,163.887451 218.134827,161.683853 220.343964,159.676865 
	C224.163361,156.207001 228.509933,153.222183 231.871262,149.367569 
	C236.013031,144.617966 239.650787,140.028885 246.050079,137.528503 
	C251.710770,135.316696 256.607971,130.891495 261.487183,126.998444 
	C269.247375,120.806709 277.014954,114.563683 284.204590,107.736961 
	C289.785797,102.437454 295.674988,97.855446 302.647766,94.668411 
	C304.806946,93.681526 307.153320,93.044426 309.179871,91.850021 
	C310.358673,91.155258 311.072723,89.671997 312.037476,88.189148 
	C313.215118,88.398148 314.351166,88.961525 315.759888,89.680542 
z"/>
<path fill="#7F0102" opacity="1.000000" stroke="none" 
	d="
M255.063385,270.578491 
	C254.971100,270.423859 254.890274,270.000122 254.837875,269.418823 
	C254.935822,269.610626 255.005325,269.959991 255.063385,270.578491 
z"/>
<path fill="#7F0102" opacity="1.000000" stroke="none" 
	d="
M250.166809,256.828552 
	C249.897247,256.604828 249.587219,256.051880 249.147675,255.211365 
	C249.387573,255.448959 249.756973,255.974136 250.166809,256.828552 
z"/>
<path fill="#7F0102" opacity="1.000000" stroke="none" 
	d="
M250.968475,258.667633 
	C250.815918,258.638947 250.580780,258.297913 250.176971,257.695007 
	C250.300842,257.740540 250.593369,258.047913 250.968475,258.667633 
z"/>
<path fill="#7F0102" opacity="1.000000" stroke="none" 
	d="
M248.980652,254.836380 
	C248.875565,254.869141 248.678925,254.728729 248.344910,254.471893 
	C248.479218,254.356262 248.706406,254.458847 248.980652,254.836380 
z"/>
<path fill="#BF0000" opacity="1.000000" stroke="none" 
	d="
M294.077087,82.553848 
	C294.679169,82.452667 295.213440,82.515068 295.747681,82.577469 
	C295.582428,82.976967 295.417175,83.376457 295.251923,83.775948 
	C294.837708,83.423103 294.423492,83.070267 294.077087,82.553848 
z"/>
<path fill="#9A0202" opacity="1.000000" stroke="none" 
	d="
M160.914062,268.475159 
	C160.811691,262.912354 160.728363,256.889221 160.764771,250.487823 
	C160.900696,256.077972 160.916916,262.046387 160.914062,268.475159 
z"/>
</svg>